<?xml version="1.0" standalone="no"?><!DOCTYPE svg PUBLIC "-//W3C//DTD SVG 1.1//EN" "http://www.w3.org/Graphics/SVG/1.1/DTD/svg11.dtd"><svg width="100%" height="100%" viewBox="0 0 240 200" version="1.1" xmlns="http://www.w3.org/2000/svg" xmlns:xlink="http://www.w3.org/1999/xlink" xml:space="preserve" style="fill-rule:evenodd;clip-rule:evenodd;stroke-linejoin:round;stroke-miterlimit:1.41421;"><g id="vertical"><path d="M91.3467,99.3325l-5.198,5.515l0,-46.879l5.198,0l0,41.364Z" style="fill:#01ac8b;fill-rule:nonzero;"/><path d="M101.886,109.729l-5.199,5.515l0,-57.275l5.199,0l0,51.76Z" style="fill:#01ac8b;fill-rule:nonzero;"/><path d="M112.176,120.357l-5.199,5.284l0,-67.673l5.199,0l0,62.389Z" style="fill:#01ac8b;fill-rule:nonzero;"/><path d="M122.602,130.946l-5.199,5.502l0,-78.479l5.199,0l0,72.977Z" style="fill:#01ac8b;fill-rule:nonzero;"/><path d="M132.954,125.641l-5.198,-5.284l0,-62.388l5.198,0l0,67.672Z" style="fill:#01ac8b;fill-rule:nonzero;"/><path d="M143.494,115.244l-5.199,-5.515l0,-51.761l5.199,0l0,57.276Z" style="fill:#01ac8b;fill-rule:nonzero;"/><path d="M153.85,104.848l-5.198,-5.515l0,-41.364l5.198,0l0,46.879Z" style="fill:#01ac8b;fill-rule:nonzero;"/><path d="M119.973,16.558c-44.184,0 -44.13,28.699 -44.13,28.699c0,0.424 0.004,2.059 0.004,2.449c0,2.838 2.3,5.139 5.139,5.139c0.156,0 0.311,-0.01 0.464,-0.024c0.095,0.008 0.188,0.024 0.285,0.024l76.536,0c0.088,0 0.174,-0.016 0.262,-0.022c0.142,0.012 0.283,0.022 0.429,0.022c2.837,0 5.137,-2.301 5.137,-5.139c0,-0.349 0.058,-1.989 0.058,-2.449c0,0 0,-28.699 -44.184,-28.699" style="fill:#01ac8b;fill-rule:nonzero;"/><path d="M26.8856,161.493l-3.876,11.153l7.622,0l-3.746,-11.153ZM34.0336,183.111l-1.808,-5.426l-10.896,0l-1.851,5.426l-6.244,0l11.154,-30.661l4.693,0l11.197,30.661l-6.245,0Z" style="fill:#3c4343;fill-rule:nonzero;"/><path d="M58.1939,183.369c-3.359,0 -6.115,-1.206 -8.268,-3.359c-3.1,-3.1 -3.014,-6.933 -3.014,-12.23c0,-5.296 -0.086,-9.129 3.014,-12.229c2.153,-2.153 4.909,-3.36 8.268,-3.36c5.728,0 10.207,3.273 11.283,9.69l-6.072,0c-0.603,-2.455 -2.153,-4.349 -5.167,-4.349c-1.637,0 -2.971,0.602 -3.833,1.593c-1.163,1.291 -1.507,2.756 -1.507,8.655c0,5.9 0.344,7.364 1.507,8.656c0.862,0.99 2.196,1.593 3.833,1.593c3.014,0 4.564,-1.894 5.167,-4.349l6.072,0c-1.076,6.417 -5.599,9.689 -11.283,9.689" style="fill:#3c4343;fill-rule:nonzero;"/><path d="M89.7806,161.493l-3.876,11.153l7.622,0l-3.746,-11.153ZM96.9286,183.111l-1.808,-5.426l-10.896,0l-1.851,5.426l-6.244,0l11.154,-30.661l4.693,0l11.197,30.661l-6.245,0Z" style="fill:#3c4343;fill-rule:nonzero;"/><path d="M112.559,183.111l0,-30.661l5.986,0l0,25.321l13.909,0l0,5.34l-19.895,0Z" style="fill:#3c4343;fill-rule:nonzero;"/><path d="M140.986,183.111l0,-30.661l20.196,0l0,5.34l-14.21,0l0,7.191l12.1,0l0,5.34l-12.1,0l0,7.45l14.21,0l0,5.34l-20.196,0Z" style="fill:#3c4343;fill-rule:nonzero;"/><path d="M184.648,157.79l-5.598,0l0,8.397l5.598,0c2.712,0 4.435,-1.679 4.435,-4.177c0,-2.498 -1.723,-4.22 -4.435,-4.22M184.949,171.57l-5.899,0l0,11.541l-5.986,0l0,-30.661l11.885,0c6.33,0 10.12,4.35 10.12,9.56c0,5.211 -3.79,9.56 -10.12,9.56" style="fill:#3c4343;fill-rule:nonzero;"/><path d="M220.78,183.111l0,-12.833l-10.378,0l0,12.833l-5.986,0l0,-30.661l5.986,0l0,12.531l10.378,0l0,-12.531l5.986,0l0,30.661l-5.986,0Z" style="fill:#3c4343;fill-rule:nonzero;"/></g></svg>